<svg width="272" height="20" viewBox="0 0 272 20" fill="none" xmlns="http://www.w3.org/2000/svg"><g clip-path="url(#clip0_2112_43595)" fill="#fff"><path d="M12.15 19.422H7.661L0 .582h4.953l4.989 13.462L14.818.582h4.724l-7.393 18.84zm9.588 0V.582h4.448v18.84h-4.448zm11.154-6.189c.152 1.706 1.429 3.215 3.829 3.215 1.858 0 2.825-1.004 2.825-2.164 0-1.01-.694-1.782-2.203-2.09l-2.786-.619c-3.327-.738-5.069-2.902-5.069-5.494 0-3.288 3.018-6.073 6.927-6.073 5.262 0 6.964 3.403 7.273 5.262l-3.793 1.083c-.156-1.083-.967-2.822-3.48-2.822-1.589 0-2.709 1.004-2.709 2.164 0 1.004.738 1.742 1.898 1.975l2.862.581c3.56.771 5.415 2.942 5.415 5.728 0 2.785-2.32 6.029-7.12 6.029-5.455 0-7.542-3.557-7.775-5.684l3.91-1.083-.004-.008zm14.188 6.189V.582h4.451v18.84h-4.45zm58.868-6.189c.157 1.706 1.433 3.215 3.829 3.215 1.858 0 2.826-1.004 2.826-2.164 0-1.01-.698-1.782-2.204-2.09l-2.785-.619c-3.328-.738-5.073-2.902-5.073-5.494 0-3.288 3.018-6.073 6.927-6.073 5.262 0 6.967 3.403 7.273 5.262l-3.789 1.083c-.157-1.083-.967-2.822-3.484-2.822-1.585 0-2.709 1.004-2.709 2.164 0 1.004.735 1.742 1.898 1.975l2.862.581c3.56.771 5.418 2.942 5.418 5.728 0 2.785-2.323 6.029-7.12 6.029-5.458 0-7.545-3.557-7.778-5.684l3.909-1.083v-.008zm17.387-3.251c0 3.789 2.44 5.924 5.262 5.924 2.822 0 4.294-2.055 4.72-3.488l3.945 1.433c-.891 2.942-3.713 6.149-8.665 6.149-5.535 0-9.749-4.294-9.749-10.018 0-5.724 4.218-9.982 9.632-9.982 5.073 0 7.855 3.175 8.629 6.19l-4.021 1.468c-.426-1.662-1.702-3.523-4.568-3.523-2.865 0-5.185 2.054-5.185 5.843v.004zm39.359 9.441h-4.487V.583h4.371v2.512c1.236-2.163 3.484-3.058 5.571-3.058 4.603 0 6.811 3.324 6.811 7.47v11.916h-4.488V8.28c0-2.32-1.043-4.182-3.869-4.182-2.556 0-3.909 1.974-3.909 4.447v10.878z"/><path d="M196.97 13.35a3.189 3.189 0 013.175 3.17c0 1.739-1.433 3.135-3.175 3.135a3.119 3.119 0 01-3.134-3.135c0-1.745 1.393-3.17 3.134-3.17zm9.324-3.368c0 3.789 2.436 5.924 5.262 5.924 2.825 0 4.294-2.055 4.72-3.488l3.945 1.433c-.891 2.942-3.716 6.149-8.665 6.149-5.535 0-9.749-4.294-9.749-10.018 0-5.724 4.214-9.982 9.632-9.982 5.066 0 7.851 3.175 8.626 6.19l-4.022 1.468c-.425-1.662-1.705-3.523-4.567-3.523s-5.186 2.054-5.186 5.843l.004.004zm34.422 0c0 5.807-4.142 10.018-9.789 10.018-5.647 0-9.749-4.21-9.749-10.018 0-5.807 4.138-9.982 9.749-9.982 5.611 0 9.789 4.218 9.789 9.982zm-4.527 0c0-3.91-2.473-5.92-5.262-5.92-2.789 0-5.262 2.01-5.262 5.92 0 3.909 2.516 6 5.262 6 2.745 0 5.262-2.055 5.262-6zm6.825 9.441V.583h4.294v2.396c1.084-1.931 3.444-2.942 5.571-2.942 2.476 0 4.644 1.124 5.647 3.324 1.47-2.47 3.677-3.324 6.113-3.324 3.404 0 6.655 2.171 6.655 7.16v12.226h-4.335V7.935c0-2.207-1.123-3.869-3.636-3.869-2.36 0-3.909 1.855-3.909 4.182v11.178h-4.411V7.94c0-2.171-1.084-3.87-3.637-3.87-2.396 0-3.905 1.783-3.905 4.183V19.43h-4.447v-.007z" opacity=".6"/><path d="M78.32 15.67c-1.662 0-2.397-.695-2.397-2.357V4.567h3.91V.582h-11.84v3.982h3.483v9.48c0 3.523 2.163 5.607 5.647 5.607 1.622 0 2.477-.305 2.746-.422v-3.716a9.781 9.781 0 01-1.55.156zm-13.753 0c-1.665 0-2.4-.695-2.4-2.357V4.567h3.91V.582h-11.84v3.982h3.483v9.48c0 3.523 2.167 5.607 5.647 5.607 1.626 0 2.477-.305 2.75-.422v-3.716c-.197.036-.932.156-1.55.156zm30.815 3.752h4.258V.582h-4.487v11.142c0 2.476-1.356 4.218-3.949 4.218s-3.789-1.975-3.789-4.298V.582h-4.487v11.873c0 4.182 2.633 7.505 7.12 7.505 2.207 0 4.41-.93 5.338-2.625v2.083l-.004.004zm87.432-6.574l-3.673 6.574h4.985L194.639.582h-4.982l-4.396 7.876-4.702-7.876h-5.073l7.328 12.265zM146.949 0c-4.644 0-7.582 2.902-7.931 6.153l4.098.923c.196-1.89 1.509-3.403 3.869-3.403 2.476 0 3.56 1.276 3.56 2.865 0 .658-.309 1.204-1.393 1.353l-4.84.738c-3.211.466-5.687 2.32-5.687 5.687 0 2.978 2.436 5.684 6.382 5.684 3.054 0 4.913-1.546 5.803-2.978v2.4h4.142V7.04c0-3.753-2.207-7.04-8.007-7.04h.004zm3.596 11.607c0 3.68-2.167 4.877-4.68 4.877-1.782 0-2.749-1.16-2.749-2.437 0-1.545 1.124-2.32 2.516-2.556l4.917-.731v.85l-.004-.003z"/></g><defs><clipPath id="clip0_2112_43595"><path fill="#fff" d="M0 0h271.295v20H0z"/></clipPath></defs></svg>